<svg width="126" height="38" viewBox="0 0 126 38" fill="none" xmlns="http://www.w3.org/2000/svg">
<path d="M0 6.10025C0.00130576 5.88386 0.084869 5.6768 0.232446 5.52427C0.380023 5.37174 0.579626 5.28612 0.787678 5.28613H3.15071C3.35962 5.28613 3.55997 5.37244 3.70769 5.52609C3.85541 5.67973 3.93839 5.8881 3.93839 6.10539V20.8452C3.93839 21.0625 4.02138 21.2708 4.16909 21.4244C4.31681 21.5781 4.51716 21.6644 4.72607 21.6644H14.9675C15.1765 21.6644 15.3768 21.5781 15.5245 21.4244C15.6722 21.2708 15.7553 21.0625 15.7553 20.8452V18.3908C15.7553 18.1736 15.6722 17.9652 15.5245 17.8115C15.3768 17.6579 15.1765 17.5715 14.9675 17.5715H10.2415C9.61475 17.5715 9.0137 17.3126 8.57055 16.8517C8.12739 16.3908 7.87844 15.7656 7.87844 15.1138V7.7439C7.87844 7.09206 8.12739 6.46691 8.57055 6.00599C9.0137 5.54508 9.61475 5.28613 10.2415 5.28613H17.3273C17.954 5.28613 18.555 5.54508 18.9982 6.00599C19.4414 6.46691 19.6903 7.09206 19.6903 7.7439V23.3115C19.6903 23.9633 19.4414 24.5885 18.9982 25.0494C18.555 25.5104 17.954 25.7693 17.3273 25.7693H2.36304C1.73632 25.7693 1.13528 25.5104 0.692117 25.0494C0.248962 24.5885 0 23.9633 0 23.3115V6.10025ZM15.7553 10.1965C15.7553 9.97925 15.6722 9.77086 15.5245 9.61722C15.3768 9.46359 15.1765 9.37727 14.9675 9.37727H11.8168V12.656C11.8168 12.8733 11.8998 13.0817 12.0475 13.2353C12.1952 13.389 12.3956 13.4753 12.6045 13.4753H15.7553V10.1965Z" fill="#213F7D"/>
<path d="M26.2979 5.28613V25.6971H29.7282V5.28613H26.2979ZM46.6179 19.772C47.1564 13.8437 44.2315 10.8642 39.5572 10.8642C35.02 10.8642 32.128 14.0173 32.128 18.3974C32.128 23.0049 34.9918 26.0765 39.8122 26.0765C41.9391 26.0765 44.3494 25.3178 45.8245 23.7405L43.6126 21.4921C42.8191 22.3384 41.1456 22.8359 39.8689 22.8359C37.4303 22.8359 35.9269 21.5504 35.7002 19.7643L46.6179 19.772ZM35.7569 16.8232C36.267 14.9541 37.7987 14.0204 39.6706 14.0204C41.6557 14.0204 43.0726 14.9541 43.3009 16.8232H35.7569ZM63.0363 25.6987V18.1363C63.0363 13.6103 60.3993 11.0716 57.1091 11.0716C55.3506 11.0716 53.9337 11.8011 52.5153 13.2325L52.2901 11.2758H49.1982V25.7002H52.6287V18.3406C52.6287 16.1505 54.0754 14.3106 56.2083 14.3106C58.4201 14.3106 59.5835 15.9754 59.5835 18.1655V25.6987H63.0363ZM72.7862 14.2814C74.9698 14.2814 76.8416 15.9708 76.8416 18.4865C76.8416 21.0851 74.9698 22.7208 72.7862 22.7208C70.5744 22.7208 68.8159 20.9976 68.8159 18.4865C68.8174 15.8833 70.5759 14.2814 72.7862 14.2814ZM77.0698 5.28613V13.2586C76.248 11.7688 73.9511 10.9548 72.476 10.9548C68.3923 10.9548 65.3585 13.5243 65.3585 18.4881C65.3585 23.2184 68.4489 26.0212 72.561 26.0212C74.2628 26.0212 75.9914 25.4376 77.0698 23.7175L77.2965 25.7033H80.53V5.28613H77.0698ZM94.5992 12.7932C92.9829 11.3327 91.3393 10.8949 89.1536 10.8949C86.602 10.8949 83.255 12.0637 83.255 15.3918C83.255 18.6616 86.4036 19.6553 89.0408 19.8595C91.0255 19.9763 91.8196 20.3847 91.8196 21.3785C91.8196 22.4289 90.599 23.1308 89.2955 23.1017C87.7355 23.0724 85.4669 22.2262 84.475 21.0866L82.7792 23.6254C84.8211 25.8154 87.033 26.1948 89.2453 26.1948C93.2437 26.1948 95.2567 24.0047 95.2567 21.4644C95.2567 17.6387 91.9103 17.026 89.2735 16.857C87.4834 16.7403 86.6645 16.215 86.6645 15.2797C86.6645 14.3751 87.5714 13.8483 89.2162 13.8483C90.5496 13.8483 91.6838 14.1693 92.6753 15.1338L94.5992 12.7932ZM104.218 22.6041C101.865 22.6041 100.247 20.761 100.247 18.5156C100.247 16.2703 101.723 14.4273 104.218 14.4273C106.714 14.4273 108.188 16.2703 108.188 18.5156C108.188 20.761 106.572 22.6041 104.218 22.6041ZM111.96 31.7145V11.3035H108.731L108.504 13.2893C107.427 11.6828 105.556 10.9856 103.967 10.9856C99.657 10.9856 96.7936 14.2845 96.7936 18.5187C96.7936 22.7239 99.3732 26.052 103.854 26.052C105.329 26.052 107.513 25.5912 108.504 24.0078V31.716L111.96 31.7145ZM114.995 11.3035V25.6987H118.456V18.1072C118.456 15.4502 120.129 14.4565 121.944 14.4565C123.079 14.4565 123.734 14.7775 124.439 15.3903L126 12.2956C125.234 11.5077 123.844 10.9226 122.398 10.9226C120.979 10.9226 119.534 11.1852 118.456 12.9668L118.201 11.3019L114.995 11.3035Z" fill="#213F7D"/>
</svg>
