<svg width="54" height="49" viewBox="0 0 54 49" fill="none" xmlns="http://www.w3.org/2000/svg">
<path d="M24.2642 1.9231C25.2912 -0.488063 28.7088 -0.488063 29.7358 1.9231C30.5434 3.81915 32.988 4.33877 34.497 2.93512C36.4159 1.15013 39.5381 2.54022 39.4956 5.16065C39.4622 7.22126 41.4841 8.69027 43.4336 8.02172C45.9126 7.17155 48.1995 9.71137 47.0948 12.088C46.2262 13.9568 47.4758 16.1212 49.5286 16.3034C52.1391 16.535 53.1952 19.7854 51.2194 21.5073C49.6658 22.8612 49.927 25.3468 51.7282 26.3481C54.0188 27.6216 53.6616 31.0205 51.1563 31.7898C49.1862 32.3948 48.4139 34.7717 49.6521 36.4191C51.2268 38.5141 49.5179 41.4739 46.9163 41.1578C44.8705 40.9091 43.1982 42.7664 43.6593 44.775C44.2457 47.3294 41.4807 49.3382 39.2326 47.9912C37.4648 46.932 35.1816 47.9485 34.7859 49.971C34.2826 52.543 30.9396 53.2536 29.4338 51.1086C28.2496 49.4219 25.7504 49.4219 24.5662 51.1086C23.0604 53.2536 19.7174 52.543 19.2141 49.971C18.8184 47.9485 16.5352 46.932 14.7674 47.9912C12.5193 49.3382 9.75434 47.3294 10.3407 44.775C10.8018 42.7664 9.12952 40.9091 7.0837 41.1578C4.48207 41.4739 2.77324 38.5141 4.34786 36.4191C5.58609 34.7717 4.81378 32.3948 2.84371 31.7898C0.338401 31.0205 -0.0188408 27.6216 2.27177 26.3481C4.07301 25.3468 4.33425 22.8612 2.78056 21.5073C0.804769 19.7854 1.86088 16.535 4.4714 16.3034C6.52421 16.1212 7.77382 13.9568 6.90518 12.088C5.80053 9.71137 8.08739 7.17155 10.5664 8.02172C12.5159 8.69027 14.5378 7.22126 14.5044 5.16065C14.4619 2.54022 17.5841 1.15013 19.503 2.93512C21.012 4.33877 23.4566 3.81915 24.2642 1.9231Z" fill="#92B842"/>
</svg>
